<svg width="49" height="40" viewBox="0 0 49 40" fill="none" xmlns="http://www.w3.org/2000/svg">
<path d="M1 3.10667V15.7767M1 15.7767H13.8182M1 15.7767L10.9127 6.5698C13.2088 4.29916 16.0493 2.64043 19.1694 1.74839C22.2894 0.856355 25.5872 0.760084 28.755 1.46856C31.9229 2.17704 34.8575 3.66718 37.2851 5.79993C39.7128 7.93268 41.5542 10.6385 42.6377 13.665M48 36.8933V24.2233M48 24.2233H35.1818M48 24.2233L38.0873 33.4302C35.7912 35.7008 32.9507 37.3596 29.8306 38.2516C26.7106 39.1436 23.4128 39.2399 20.245 38.5314C17.0771 37.823 14.1425 36.3328 11.7149 34.2001C9.28724 32.0673 7.44577 29.3615 6.36227 26.335" stroke="white" stroke-width="2" stroke-linecap="round" stroke-linejoin="round"/>
</svg>
