<?xml version="1.0" encoding="utf-8"?>
<!-- Generator: Adobe Illustrator 24.0.0, SVG Export Plug-In . SVG Version: 6.00 Build 0)  -->
<svg version="1.1" id="Слой_1" xmlns="http://www.w3.org/2000/svg" xmlns:xlink="http://www.w3.org/1999/xlink" x="0px" y="0px"
	 viewBox="0 0 566.93 147.4" style="enable-background:new 0 0 566.93 147.4;" xml:space="preserve">
<style type="text/css">
	.st0{fill:#E52421;}
</style>
<path class="st0" d="M116.45,140.62V46.15H37.91v94.64h26.13V67h25.8v73.62H116.45z M123.44,43.26v103.12h-3.5H86.33h-3.52V72.78
	H71.02v73.76h-3.5H34.41h-3.5V40.36h92.53V43.26z"/>
<polygon points="1.18,47.03 77.52,0.48 98.99,14.42 98.99,1.5 116.31,1.5 116.31,24.94 151.91,46.7 148.22,50.8 111.36,28.27 
	110.09,27.5 110.09,6.62 105.22,6.62 105.22,24.97 77.41,6.93 4.87,51.13 "/>
<polygon class="st0" points="179.74,102.09 179.74,70.36 188.03,70.36 188.03,102.09 203.77,102.09 203.77,58.76 164,58.76 
	164,102.09 "/>
<path class="st0" d="M355.75,94.02V58.76h-27.79l-11.97,8.06v35.26h28.54L355.75,94.02z M340.16,70.36v19.74h-7.68V70.36H340.16z
	 M340.16,90.11V70.36V90.11z"/>
<polygon class="st0" points="430,102.09 430,58.76 414.26,58.76 414.26,76.09 406.05,76.09 406.05,58.76 390.24,58.76 
	390.24,102.09 406.05,102.09 406.05,83.17 414.26,83.17 414.26,102.09 "/>
<polygon class="st0" points="465.4,102.09 465.4,58.76 499.89,58.76 499.89,69.91 481.89,69.91 481.89,76.77 489.27,76.77 
	489.27,83.55 481.89,83.55 481.89,91.01 499.89,91.01 499.89,102.09 "/>
<polygon class="st0" points="279.91,102.09 279.91,58.76 264.92,58.76 264.92,70.82 255.13,80.99 255.13,58.76 240.14,58.76 
	240.14,102.09 253.25,102.09 264.92,88 264.92,102.09 "/>
<path class="st0" d="M527.53,102.09h16.49V91.01l21.09-8.06V58.76h-37.58V102.09z M541.39,81.14V68.41h10.69v9.34L541.39,81.14z"/>
<rect x="163.47" y="113.31" width="402.09" height="4.29"/>
<path d="M163.47,146.54 M173.42,146.92c-1.88,0-3.61-0.38-5.12-1.13c-1.51-0.83-2.71-1.88-3.54-3.32c-0.83-1.43-1.28-3.01-1.28-4.82
	c0-1.81,0.45-3.39,1.28-4.82c0.83-1.43,2.03-2.56,3.54-3.32s3.24-1.21,5.12-1.21c1.73,0,3.24,0.3,4.59,0.98
	c1.36,0.6,2.49,1.43,3.39,2.64l-3.84,3.39c-1.05-1.43-2.33-2.11-3.84-2.11c-1.28,0-2.26,0.38-3.01,1.21
	c-0.83,0.83-1.2,1.88-1.2,3.24s0.38,2.41,1.2,3.24c0.75,0.83,1.73,1.21,3.01,1.21c1.51,0,2.79-0.68,3.84-2.11l3.84,3.39
	c-0.9,1.13-2.03,2.03-3.39,2.64C176.65,146.62,175.15,146.92,173.42,146.92L173.42,146.92z M182,146.54 M198.34,133.43h-5.27v13.11
	h-5.87v-13.11H182v-4.67h16.34V133.43z M200.3,146.54 M208.89,128.76c1.58,0,3.01,0.3,4.29,0.83c1.21,0.53,2.11,1.28,2.79,2.34
	c0.68,0.98,0.98,2.19,0.98,3.54s-0.3,2.56-0.98,3.54c-0.68,1.05-1.58,1.81-2.79,2.34c-1.28,0.53-2.71,0.83-4.29,0.83h-2.64v4.37
	h-5.95v-17.78H208.89z M208.51,137.58c0.75,0,1.36-0.23,1.81-0.6c0.38-0.38,0.6-0.83,0.6-1.51c0-0.68-0.23-1.21-0.6-1.58
	c-0.45-0.3-1.05-0.53-1.81-0.53h-2.26v4.22H208.51z M218,146.54 M228.09,146.92c-1.96,0-3.69-0.38-5.2-1.13
	c-1.51-0.83-2.71-1.96-3.54-3.39c-0.9-1.36-1.36-2.94-1.36-4.75c0-1.81,0.45-3.39,1.36-4.82c0.83-1.36,2.03-2.49,3.54-3.32
	c1.51-0.75,3.24-1.21,5.2-1.21c1.88,0,3.61,0.45,5.12,1.21c1.51,0.83,2.71,1.96,3.61,3.32c0.83,1.43,1.28,3.01,1.28,4.82
	c0,1.81-0.45,3.39-1.28,4.75c-0.9,1.43-2.11,2.56-3.61,3.39C231.71,146.54,229.97,146.92,228.09,146.92L228.09,146.92z
	 M228.09,142.1c0.68,0,1.36-0.15,2.03-0.53c0.53-0.38,1.05-0.9,1.36-1.58c0.38-0.68,0.6-1.43,0.6-2.34c0-0.9-0.23-1.66-0.6-2.34
	c-0.3-0.68-0.83-1.21-1.36-1.58c-0.68-0.38-1.36-0.53-2.03-0.53c-0.75,0-1.43,0.15-2.03,0.53c-0.6,0.38-1.13,0.9-1.43,1.58
	c-0.38,0.68-0.53,1.43-0.53,2.34c0,0.9,0.15,1.66,0.53,2.34c0.3,0.68,0.83,1.21,1.43,1.58C226.66,141.95,227.34,142.1,228.09,142.1
	L228.09,142.1z M240.22,146.54 M240.22,128.76h5.95v9.27l6.1-9.27h5.65v17.78h-5.87v-9.19l-6.1,9.19h-5.72V128.76z M259.87,146.54
	 M276.22,133.43h-5.2v13.11h-5.95v-13.11h-5.2v-4.67h16.34V133.43z M278.17,146.54 M292.94,142.02v4.52h-14.76v-17.78h14.46v4.52
	h-8.59v2.11h7.53v4.29h-7.53v2.34H292.94z M294.22,146.54 M312.74,128.76v17.78h-5.87v-13.11h-4.07l-0.08,2.03
	c-0.08,2.56-0.23,4.6-0.6,6.25c-0.3,1.58-0.9,2.86-1.73,3.77c-0.9,0.9-2.11,1.36-3.69,1.36c-0.75,0-1.66-0.08-2.49-0.3l0.3-4.82
	c0.23,0.08,0.38,0.08,0.6,0.08c0.68,0,1.13-0.23,1.51-0.75c0.3-0.53,0.53-1.21,0.6-2.03c0.15-0.83,0.23-1.96,0.3-3.32l0.23-6.93
	H312.74z M315.91,146.54 M325.47,134.19c2.26,0,3.99,0.53,5.12,1.51c1.2,0.98,1.81,2.49,1.81,4.37c0,2.11-0.68,3.69-2.03,4.82
	c-1.36,1.13-3.24,1.66-5.65,1.66h-8.81v-17.78h5.87v5.43H325.47z M324.34,142.32c0.6,0,1.13-0.15,1.51-0.53
	c0.38-0.45,0.53-0.9,0.53-1.58c0-1.21-0.68-1.81-2.03-1.81h-2.56v3.92H324.34z M334.51,146.54 M351.98,128.76v17.78h-5.95v-6.56
	h-5.57v6.56h-5.95v-17.78h5.95v6.33h5.57v-6.33H351.98z M353.64,146.54 M367.72,143.45h-6.78l-1.21,3.09h-6.1l7.83-17.78h5.87
	l7.76,17.78h-6.18L367.72,143.45z M366.06,139.08l-1.73-4.45l-1.73,4.45H366.06z"/>
<path d="M374.65,146.54 M391.22,128.76v17.78h-5.87v-4.22h-1.66l-2.71,4.22h-6.25l3.46-5.05c-1.13-0.6-2.03-1.36-2.64-2.34
	c-0.6-0.98-0.9-2.19-0.9-3.54c0-1.36,0.3-2.56,0.98-3.62c0.68-1.05,1.66-1.88,2.86-2.41c1.28-0.53,2.71-0.83,4.37-0.83H391.22z
	 M383.01,133.36c-1.58,0-2.33,0.75-2.33,2.19c0,1.51,0.75,2.26,2.33,2.26h2.33v-4.45H383.01z M401.84,146.54 M414.41,137.43
	l5.27,9.12h-6.78l-3.39-6.4h-1.73v6.4h-5.95v-17.78h5.95v6.63h1.88l3.77-6.63h6.25L414.41,137.43z"/>
<path d="M419.76,146.54 M429.85,146.92c-1.96,0-3.69-0.38-5.2-1.13c-1.51-0.83-2.71-1.96-3.54-3.39c-0.9-1.36-1.36-2.94-1.36-4.75
	c0-1.81,0.45-3.39,1.36-4.82c0.83-1.36,2.03-2.49,3.54-3.32c1.51-0.75,3.24-1.21,5.2-1.21c1.88,0,3.61,0.45,5.12,1.21
	c1.51,0.83,2.71,1.96,3.61,3.32c0.83,1.43,1.28,3.01,1.28,4.82c0,1.81-0.45,3.39-1.28,4.75c-0.9,1.43-2.11,2.56-3.61,3.39
	C433.47,146.54,431.74,146.92,429.85,146.92L429.85,146.92z M429.85,142.1c0.68,0,1.36-0.15,2.03-0.53c0.53-0.38,1.05-0.9,1.36-1.58
	c0.38-0.68,0.6-1.43,0.6-2.34c0-0.9-0.23-1.66-0.6-2.34c-0.3-0.68-0.83-1.21-1.36-1.58c-0.68-0.38-1.36-0.53-2.03-0.53
	c-0.75,0-1.43,0.15-2.03,0.53c-0.6,0.38-1.13,0.9-1.43,1.58c-0.38,0.68-0.53,1.43-0.53,2.34c0,0.9,0.15,1.66,0.53,2.34
	c0.3,0.68,0.83,1.21,1.43,1.58C428.42,141.95,429.1,142.1,429.85,142.1L429.85,142.1z M441.98,146.54 M457.87,146.54v-8.14
	l-3.92,6.56h-2.64l-3.84-6.25v7.84h-5.5v-17.78h4.97l5.8,9.49l5.65-9.49h4.9l0.08,17.78H457.87z M466.45,146.54 M483.7,128.76v17.78
	h-5.95v-13.11h-5.35v13.11h-5.95v-17.78H483.7z M485.36,146.54 M499.37,143.45h-6.78l-1.13,3.09h-6.1l7.76-17.78h5.87l7.76,17.78
	h-6.18L499.37,143.45z M497.71,139.08l-1.73-4.45l-1.73,4.45H497.71z M508.4,146.54 M525.95,128.76v17.78h-6.03v-6.56h-5.5v6.56
	h-6.02v-17.78h6.02v6.33h5.5v-6.33H525.95z M529.11,146.54 M529.11,128.76h5.87v9.27l6.1-9.27h5.65v17.78h-5.87v-9.19l-6.1,9.19
	h-5.65V128.76z M548.92,146.54 M565.49,128.76v17.78h-5.87v-4.22h-1.58l-2.71,4.22H549l3.54-5.05c-1.13-0.6-2.03-1.36-2.64-2.34
	c-0.68-0.98-0.98-2.19-0.98-3.54c0-1.36,0.38-2.56,1.05-3.62c0.68-1.05,1.58-1.88,2.86-2.41c1.2-0.53,2.64-0.83,4.37-0.83H565.49z
	 M557.28,133.36c-1.51,0-2.26,0.75-2.26,2.19c0,1.51,0.75,2.26,2.26,2.26h2.33v-4.45H557.28z"/>
</svg>
